<svg xmlns="http://www.w3.org/2000/svg" viewBox="0 0 32.61 32.77"><defs><style>.cls-1{fill:#fcee21;stroke:#000;stroke-miterlimit:10;stroke-width:0.5px;}</style></defs><title>RoughDraftFavicon</title><g id="Layer_2" data-name="Layer 2"><g id="LightingBolts"><path class="cls-1" d="M8.76,16.31l.33-3.2-1.92.8s-1.86-9,2.19-11,12.27-5,18.37.17l-1.81.93s-6.12-5.32-15.54.66c0,0-2.14,1.27-1.51,6.77l1.54-.66Z"/><path class="cls-1" d="M21.09,9.2l2.59,2L24,9.14s8.76,3.31,8.33,7.81-2.17,13.12-9.9,15.47l.16-2s6.79-2,7.83-13.46c0,0,1-2.79-5.21-5L25,13.57Z"/><path class="cls-1" d="M21.09,24l-3,1.21,1.61,1.32s-7,5.87-10.7,3.23S-1.17,21.25.53,13.43L2.2,14.59S.39,22.49,10.1,28c0,0,2.12,1.3,6.69-1.85l-1.31-1.05Z"/></g></g></svg>