<svg id="LightingBolts" xmlns="http://www.w3.org/2000/svg" viewBox="0 0 2500 2500"><defs><style>.cls-1{fill:#fcee21;stroke:#000;stroke-miterlimit:10;stroke-width:3px;}</style></defs><title>QuickFirstDraft</title><path class="cls-1" d="M863.93,1219.85l15.2-147.77-89,37S704.2,693.51,891.58,601.84s567.79-232,850,7.87l-83.75,42.89s-283.11-245.94-719,30.84c0,0-99.16,58.38-70.23,313.13l71.52-30.35Z"/><path class="cls-1" d="M1434.3,890.91,1554.24,984l15.23-95.53s405.59,152.83,385.48,361.37-100.57,607.06-458.2,716l7.33-94.25s314.35-93.46,362.48-623c0,0,47.5-128.92-241.32-232.52l-11.68,77.07Z"/><path class="cls-1" d="M1434.3,1573.51l-137.51,56.21,74.58,61.12s-326.11,271.51-495.24,149.4S404,1448.68,482.68,1086.77L560,1140.45s-83.58,365.57,365.9,619.7c0,0,98.2,60,309.29-85.56l-60.46-48.78Z"/></svg>